<svg width="36" height="33" viewBox="0 0 36 33" fill="none" xmlns="http://www.w3.org/2000/svg">
<path fill-rule="evenodd" clip-rule="evenodd" d="M22.328 2.5C20.4035 -0.833334 15.5922 -0.833332 13.6677 2.5L0.677332 25C-1.24717 28.3333 1.15846 32.5 5.00746 32.5H30.9882C34.8372 32.5 37.2428 28.3333 35.3183 25L22.328 2.5ZM16.7597 13.8625L17.1347 22.025H18.7347L19.1097 13.8625L19.2597 9H16.6097L16.7597 13.8625ZM16.8097 27.225C17.118 27.5333 17.493 27.6875 17.9347 27.6875C18.3764 27.6875 18.7514 27.5333 19.0597 27.225C19.3764 26.9167 19.5347 26.5167 19.5347 26.025C19.5347 25.55 19.3764 25.1583 19.0597 24.85C18.7514 24.5417 18.3764 24.3875 17.9347 24.3875C17.493 24.3875 17.118 24.5417 16.8097 24.85C16.5014 25.1583 16.3472 25.55 16.3472 26.025C16.3472 26.5167 16.5014 26.9167 16.8097 27.225Z" fill="white"/>
</svg>
