<svg width="460" height="460" viewBox="0 0 460 460" fill="none" xmlns="http://www.w3.org/2000/svg">
<path d="M94.875 3H227V43H69H64.6145L66.204 47.0873L225.614 457H186.052L48.796 104.056L43 105.143V457H3V61.525V47.2426L47.2426 3H94.875Z" stroke="white" stroke-width="6"/>
<path d="M457 343.263V444.114L408.743 320.906L407.103 316.717L403.866 319.842L370.516 352.042L369.078 353.431L369.806 355.293L409.605 457H370.052L330.546 355.413L330.163 354.429L329.249 353.901L269.449 319.401L262.019 315.115L265.158 323.098L317.809 457H278.047L225.387 322.548L260.574 279.897L335.412 324.576L337.345 325.73L338.993 324.197L387.58 279H430.415L449.171 323.13L457 343.263Z" stroke="white" stroke-width="6"/>
<path d="M457 113.263V214.114L408.743 90.9059L407.103 86.7169L403.866 89.8418L370.516 122.042L369.078 123.431L369.806 125.293L409.605 227H370.052L330.546 125.413L330.163 124.429L329.249 123.901L269.449 89.4014L262.019 85.1149L265.158 93.0978L317.809 227H278.047L225.387 92.5484L260.574 49.8966L335.412 94.5759L337.345 95.7298L338.993 94.1966L387.58 49H430.415L449.171 93.1303L457 113.263Z" stroke="white" stroke-width="6"/>
</svg>
