<svg id="layer" xmlns="http://www.w3.org/2000/svg" viewBox="0 0 404.7 263.97"><defs><style>.cls-1{fill:#ffffff;}</style></defs><path class="cls-1" d="M46.83,375.35,46.26,358H66.51V346.15H80.6V358h23.55a75.28,75.28,0,0,0,8.47-.29,5,5,0,0,0,3.24-1.9q1.31-1.62,1.3-5.43c0-1.35,0-3-.13-5.08h13.59A50.35,50.35,0,0,1,132,356.18q0,8.13-3.11,12.44a13.68,13.68,0,0,1-7.81,5.53q-4.69,1.2-14.91,1.2H80.6v7.11H66.51v-7.11Z" transform="translate(-43.53 -118.5)"/><path class="cls-1" d="M44,338.15v-17.9H73.3q-8.13-4.81-8.13-15.74,0-6.54,3-10.31a13.29,13.29,0,0,1,7.71-4.8,68.72,68.72,0,0,1,13.55-1h41.14v17.9H89.43c-4.19,0-7,.39-8.35,1.17S79,309.87,79,312.32a8.27,8.27,0,0,0,2,5.78c1.31,1.44,4.3,2.15,9,2.15h40.68v17.9Z" transform="translate(-43.53 -118.5)"/><path class="cls-1" d="M61.24,258.17v18.16H43.53V258.17Zm5.27,18V258.3h64.11v17.9Z" transform="translate(-43.53 -118.5)"/><path class="cls-1" d="M66.51,245.16V229.42H82q-16.3-4.26-16.31-15.17A17.11,17.11,0,0,1,66,211.2H83.45a27.41,27.41,0,0,0-.25,3q0,13.08,19.8,13.08h27.62v17.9Z" transform="translate(-43.53 -118.5)"/><path class="cls-1" d="M44,172.48V154.9h86.65v16.63H120q11.49,4,11.49,14.57a16.56,16.56,0,0,1-9,15.4q-9,5.07-23.67,5.07-16.69,0-24.95-5.81t-8.25-15.52q0-9,6.85-12.76Zm49.36,0q-9.43,0-12.64,2a6.46,6.46,0,0,0-3.2,5.83,6.09,6.09,0,0,0,4.43,6.15q4.44,1.62,18.38,1.63,10.4,0,14.58-1.79t4.18-5.86a7,7,0,0,0-2.82-5.71q-2.82-2.25-11.56-2.26Z" transform="translate(-43.53 -118.5)"/><path class="cls-1" d="M168.4,149.7h23.47v12.13q6.33-13.89,21.53-13.89,15.82,0,19.16,13.89,6-13.89,21.58-13.89,8.72,0,13.87,3.16a16.75,16.75,0,0,1,7.17,8.66q2,5.49,2,20.7v58H252.42V183q0-9.93-1.4-12.92t-6.24-3q-5.81,0-7.56,3.91t-1.76,15.78v51.68H210.68V182.22q0-9.5-1.37-12.31c-.9-1.87-3-2.81-6.19-2.81q-6,0-8,4.09t-2,15.6v51.68H168.4Z" transform="translate(-43.53 -118.5)"/><path class="cls-1" d="M317.82,177.91l-23.47-2.29q1.66-13.35,11.38-20.56t24.48-7.21q12.48,0,20,4.79t9.53,11.12q2,6.33,2,19.6v35.42q0,16.51,1.49,19.69h-23Q339,234.86,339,224.84q-8.16,15.48-24.3,15.47-10.36,0-16.85-6.19t-6.49-18.07q0-14.85,9.83-23T337,183.36V180q0-8.88-1.8-12.31t-6.95-3.42Q318.78,164.29,317.82,177.91ZM337,196.1q-10.82,1.23-15.43,4.78t-4.61,12q0,11.21,8.26,11.21,4.49,0,8.13-5T337,200.48Z" transform="translate(-43.53 -118.5)"/><path class="cls-1" d="M423.37,118.5h24.35v120h-23V223.79q-5.61,15.9-20.18,15.91-14.29,0-21.32-12.48t-7-32.79q0-23.12,8.05-34.54t21.49-11.42q12.39,0,17.66,9.49Zm0,68.34q0-13.08-2.78-17.51a9,9,0,0,0-8.07-4.43q-6.27,0-8.52,6.14t-2.25,25.45q0,14.4,2.47,20.19t8.12,5.79a9.72,9.72,0,0,0,7.9-3.9q3.13-3.91,3.13-16Z" transform="translate(-43.53 -118.5)"/><path class="cls-1" d="M167.77,285.25h23.46v12.13q6.33-13.89,21.54-13.89,15.81,0,19.16,13.89,6-13.89,21.57-13.89,8.73,0,13.87,3.17a16.7,16.7,0,0,1,7.18,8.65q2,5.51,2,20.7v58H251.79V318.56q0-9.93-1.41-12.92t-6.24-3c-3.86,0-6.38,1.31-7.55,3.91s-1.76,7.87-1.76,15.78V374H210V317.77q0-9.5-1.36-12.3c-.91-1.88-3-2.82-6.2-2.82q-6,0-7.95,4.09c-1.32,2.72-2,7.93-2,15.6V374H167.77Z" transform="translate(-43.53 -118.5)"/><path class="cls-1" d="M317.18,313.46l-23.47-2.28q1.68-13.37,11.39-20.57t24.47-7.2q12.48,0,20,4.79t9.54,11.11q2,6.33,2,19.6v35.42q0,16.53,1.49,19.69h-23q-1.25-3.6-1.24-13.62-8.16,15.47-24.3,15.47-10.35,0-16.84-6.2t-6.49-18.06q0-14.85,9.82-23t35.79-9.71v-3.34c0-5.91-.6-10-1.79-12.3s-3.52-3.43-7-3.43Q318.14,299.84,317.18,313.46Zm19.16,18.2q-10.81,1.23-15.42,4.77t-4.62,12q0,11.22,8.26,11.22,4.49,0,8.13-5T336.34,336Z" transform="translate(-43.53 -118.5)"/><path class="cls-1" d="M379.32,285.25h23.47v12.13q6.15-13.89,22.23-13.89,8.7,0,14.37,3.91a17.19,17.19,0,0,1,7.25,10q1.59,6.06,1.59,18.46V374H423.44V315.84q0-9-2.28-11.08a8.77,8.77,0,0,0-6.16-2.11q-6.67,0-8.79,4.09T404.11,322v52H379.32Z" transform="translate(-43.53 -118.5)"/></svg>